<svg height="5246" width="720" xmlns="http://www.w3.org/2000/svg">
<rect height="5246" fill="#555" width="720"></rect>
<text fill="#7f7" font-family="Courier New" font-size="12" xml:space="preserve">
<tspan x="10" y="26"></tspan>
<tspan x="10" y="42">&gt; npmdoc-jsdoc@0.0.1 test /home/travis/build/npmdoc/node-npmdoc-jsdoc</tspan>
<tspan x="10" y="58">&gt; (set -e; export PORT=$(utility2 shServerPortRandom); utility2 test test.js)</tspan>
<tspan x="10" y="74"></tspan>
<tspan x="10" y="90"></tspan>
<tspan x="10" y="106">[MODE_BUILD=npmTest] - 2017-04-01T17:26:20Z - npm-testing /home/travis/build/npmdoc/node-npmdoc-\</tspan>
<tspan x="10" y="122">jsdoc</tspan>
<tspan x="10" y="138"></tspan>
<tspan x="10" y="154"></tspan>
<tspan x="10" y="170">covering $ /home/travis/.nvm/versions/node/v6.10.1/bin/node /home/travis/build/npmdoc/node-npmdo\</tspan>
<tspan x="10" y="186">c-jsdoc/test.js</tspan>
<tspan x="10" y="202">merging file:///home/travis/build/npmdoc/node-npmdoc-jsdoc/tmp/build/test-report.json to test-re\</tspan>
<tspan x="10" y="218">port</tspan>
<tspan x="10" y="234">&gt; server listening on http-port 47107</tspan>
<tspan x="10" y="250">There are no input files to process.</tspan>
<tspan x="10" y="266"></tspan>
<tspan x="10" y="282">JSDoc 3.4.3 (Thu, 10 Nov 2016 00:25:10 GMT)</tspan>
<tspan x="10" y="298"></tspan>
<tspan x="10" y="314">Options:</tspan>
<tspan x="10" y="330">    -a, --access &lt;value&gt;         Only</tspan>
<tspan x="10" y="346">                                 display</tspan>
<tspan x="10" y="362">                                 symbols</tspan>
<tspan x="10" y="378">                                 with</tspan>
<tspan x="10" y="394">                                 the</tspan>
<tspan x="10" y="410">                                 given</tspan>
<tspan x="10" y="426">                                 access:</tspan>
<tspan x="10" y="442">                                 "public",</tspan>
<tspan x="10" y="458">                                 "protected",</tspan>
<tspan x="10" y="474">                                 "private"</tspan>
<tspan x="10" y="490">                                 or</tspan>
<tspan x="10" y="506">                                 "undefined",</tspan>
<tspan x="10" y="522">                                 or</tspan>
<tspan x="10" y="538">                                 "all"</tspan>
<tspan x="10" y="554">                                 for</tspan>
<tspan x="10" y="570">                                 all</tspan>
<tspan x="10" y="586">                                 access</tspan>
<tspan x="10" y="602">                                 levels.</tspan>
<tspan x="10" y="618">                                 Default:</tspan>
<tspan x="10" y="634">                                 all</tspan>
<tspan x="10" y="650">                                 except</tspan>
<tspan x="10" y="666">                                 "private"</tspan>
<tspan x="10" y="682">    -c, --configure &lt;value&gt;      The</tspan>
<tspan x="10" y="698">                                 path</tspan>
<tspan x="10" y="714">                                 to</tspan>
<tspan x="10" y="730">                                 the</tspan>
<tspan x="10" y="746">                                 configuration</tspan>
<tspan x="10" y="762">                                 file.</tspan>
<tspan x="10" y="778">                                 Default:</tspan>
<tspan x="10" y="794">                                 path/to/jsdoc/conf.json</tspan>
<tspan x="10" y="810">    -d, --destination &lt;value&gt;    The</tspan>
<tspan x="10" y="826">                                 path</tspan>
<tspan x="10" y="842">                                 to</tspan>
<tspan x="10" y="858">                                 the</tspan>
<tspan x="10" y="874">                                 output</tspan>
<tspan x="10" y="890">                                 folder.</tspan>
<tspan x="10" y="906">                                 Use</tspan>
<tspan x="10" y="922">                                 "console"</tspan>
<tspan x="10" y="938">                                 to</tspan>
<tspan x="10" y="954">                                 dump</tspan>
<tspan x="10" y="970">                                 data</tspan>
<tspan x="10" y="986">                                 to</tspan>
<tspan x="10" y="1002">                                 the</tspan>
<tspan x="10" y="1018">                                 console.</tspan>
<tspan x="10" y="1034">                                 Default:</tspan>
<tspan x="10" y="1050">                                 ./out/</tspan>
<tspan x="10" y="1066">    --debug                      Log</tspan>
<tspan x="10" y="1082">                                 information</tspan>
<tspan x="10" y="1098">                                 for</tspan>
<tspan x="10" y="1114">                                 debugging</tspan>
<tspan x="10" y="1130">                                 JSDoc.</tspan>
<tspan x="10" y="1146">    -e, --encoding &lt;value&gt;       Assume</tspan>
<tspan x="10" y="1162">                                 this</tspan>
<tspan x="10" y="1178">                                 encoding</tspan>
<tspan x="10" y="1194">                                 when</tspan>
<tspan x="10" y="1210">                                 reading</tspan>
<tspan x="10" y="1226">                                 all</tspan>
<tspan x="10" y="1242">                                 source</tspan>
<tspan x="10" y="1258">                                 files.</tspan>
<tspan x="10" y="1274">                                 Default:</tspan>
<tspan x="10" y="1290">                                 utf8</tspan>
<tspan x="10" y="1306">    -h, --help                   Print</tspan>
<tspan x="10" y="1322">                                 this</tspan>
<tspan x="10" y="1338">                                 message</tspan>
<tspan x="10" y="1354">                                 and</tspan>
<tspan x="10" y="1370">                                 quit.</tspan>
<tspan x="10" y="1386">    --match &lt;value&gt;              When</tspan>
<tspan x="10" y="1402">                                 running</tspan>
<tspan x="10" y="1418">                                 tests,</tspan>
<tspan x="10" y="1434">                                 only</tspan>
<tspan x="10" y="1450">                                 use</tspan>
<tspan x="10" y="1466">                                 specs</tspan>
<tspan x="10" y="1482">                                 whose</tspan>
<tspan x="10" y="1498">                                 names</tspan>
<tspan x="10" y="1514">                                 contain</tspan>
<tspan x="10" y="1530">                                 &lt;value&gt;.</tspan>
<tspan x="10" y="1546">    --nocolor                    When</tspan>
<tspan x="10" y="1562">                                 running</tspan>
<tspan x="10" y="1578">                                 tests,</tspan>
<tspan x="10" y="1594">                                 do</tspan>
<tspan x="10" y="1610">                                 not</tspan>
<tspan x="10" y="1626">                                 use</tspan>
<tspan x="10" y="1642">                                 color</tspan>
<tspan x="10" y="1658">                                 in</tspan>
<tspan x="10" y="1674">                                 console</tspan>
<tspan x="10" y="1690">                                 output.</tspan>
<tspan x="10" y="1706">    -p, --private                Display</tspan>
<tspan x="10" y="1722">                                 symbols</tspan>
<tspan x="10" y="1738">                                 marked</tspan>
<tspan x="10" y="1754">                                 with</tspan>
<tspan x="10" y="1770">                                 the</tspan>
<tspan x="10" y="1786">                                 @private</tspan>
<tspan x="10" y="1802">                                 tag.</tspan>
<tspan x="10" y="1818">                                 Equivalent</tspan>
<tspan x="10" y="1834">                                 to</tspan>
<tspan x="10" y="1850">                                 "--access</tspan>
<tspan x="10" y="1866">                                 all".</tspan>
<tspan x="10" y="1882">                                 Default:</tspan>
<tspan x="10" y="1898">                                 false</tspan>
<tspan x="10" y="1914">    -P, --package &lt;value&gt;        The</tspan>
<tspan x="10" y="1930">                                 path</tspan>
<tspan x="10" y="1946">                                 to</tspan>
<tspan x="10" y="1962">                                 the</tspan>
<tspan x="10" y="1978">                                 project's</tspan>
<tspan x="10" y="1994">                                 package</tspan>
<tspan x="10" y="2010">                                 file.</tspan>
<tspan x="10" y="2026">                                 Default:</tspan>
<tspan x="10" y="2042">                                 path/to/sourcefiles/package.json</tspan>
<tspan x="10" y="2058">    --pedantic                   Treat</tspan>
<tspan x="10" y="2074">                                 errors</tspan>
<tspan x="10" y="2090">                                 as</tspan>
<tspan x="10" y="2106">                                 fatal</tspan>
<tspan x="10" y="2122">                                 errors,</tspan>
<tspan x="10" y="2138">                                 and</tspan>
<tspan x="10" y="2154">                                 treat</tspan>
<tspan x="10" y="2170">                                 warnings</tspan>
<tspan x="10" y="2186">                                 as</tspan>
<tspan x="10" y="2202">                                 errors.</tspan>
<tspan x="10" y="2218">                                 Default:</tspan>
<tspan x="10" y="2234">                                 false</tspan>
<tspan x="10" y="2250">    -q, --query &lt;value&gt;          A</tspan>
<tspan x="10" y="2266">                                 query</tspan>
<tspan x="10" y="2282">                                 string</tspan>
<tspan x="10" y="2298">                                 to</tspan>
<tspan x="10" y="2314">                                 parse</tspan>
<tspan x="10" y="2330">                                 and</tspan>
<tspan x="10" y="2346">                                 store</tspan>
<tspan x="10" y="2362">                                 in</tspan>
<tspan x="10" y="2378">                                 jsdoc.env.opts.query.</tspan>
<tspan x="10" y="2394">                                 Example:</tspan>
<tspan x="10" y="2410">                                 foo=bar&amp;baz=true</tspan>
<tspan x="10" y="2426">    -r, --recurse                Recurse</tspan>
<tspan x="10" y="2442">                                 into</tspan>
<tspan x="10" y="2458">                                 subdirectories</tspan>
<tspan x="10" y="2474">                                 when</tspan>
<tspan x="10" y="2490">                                 scanning</tspan>
<tspan x="10" y="2506">                                 for</tspan>
<tspan x="10" y="2522">                                 source</tspan>
<tspan x="10" y="2538">                                 files</tspan>
<tspan x="10" y="2554">                                 and</tspan>
<tspan x="10" y="2570">                                 tutorials.</tspan>
<tspan x="10" y="2586">    -R, --readme &lt;value&gt;         The</tspan>
<tspan x="10" y="2602">                                 path</tspan>
<tspan x="10" y="2618">                                 to</tspan>
<tspan x="10" y="2634">                                 the</tspan>
<tspan x="10" y="2650">                                 project's</tspan>
<tspan x="10" y="2666">                                 README</tspan>
<tspan x="10" y="2682">                                 file.</tspan>
<tspan x="10" y="2698">                                 Default:</tspan>
<tspan x="10" y="2714">                                 path/to/sourcefiles/README.md</tspan>
<tspan x="10" y="2730">    -t, --template &lt;value&gt;       The</tspan>
<tspan x="10" y="2746">                                 path</tspan>
<tspan x="10" y="2762">                                 to</tspan>
<tspan x="10" y="2778">                                 the</tspan>
<tspan x="10" y="2794">                                 template</tspan>
<tspan x="10" y="2810">                                 to</tspan>
<tspan x="10" y="2826">                                 use.</tspan>
<tspan x="10" y="2842">                                 Default:</tspan>
<tspan x="10" y="2858">                                 path/to/jsdoc/templates/default</tspan>
<tspan x="10" y="2874">    -T, --test                   Run</tspan>
<tspan x="10" y="2890">                                 all</tspan>
<tspan x="10" y="2906">                                 tests</tspan>
<tspan x="10" y="2922">                                 and</tspan>
<tspan x="10" y="2938">                                 quit.</tspan>
<tspan x="10" y="2954">    -u, --tutorials &lt;value&gt;      Directory</tspan>
<tspan x="10" y="2970">                                 in</tspan>
<tspan x="10" y="2986">                                 which</tspan>
<tspan x="10" y="3002">                                 JSDoc</tspan>
<tspan x="10" y="3018">                                 should</tspan>
<tspan x="10" y="3034">                                 search</tspan>
<tspan x="10" y="3050">                                 for</tspan>
<tspan x="10" y="3066">                                 tutorials.</tspan>
<tspan x="10" y="3082">    -v, --version                Display</tspan>
<tspan x="10" y="3098">                                 the</tspan>
<tspan x="10" y="3114">                                 version</tspan>
<tspan x="10" y="3130">                                 number</tspan>
<tspan x="10" y="3146">                                 and</tspan>
<tspan x="10" y="3162">                                 quit.</tspan>
<tspan x="10" y="3178">    --verbose                    Log</tspan>
<tspan x="10" y="3194">                                 detailed</tspan>
<tspan x="10" y="3210">                                 information</tspan>
<tspan x="10" y="3226">                                 to</tspan>
<tspan x="10" y="3242">                                 the</tspan>
<tspan x="10" y="3258">                                 console</tspan>
<tspan x="10" y="3274">                                 as</tspan>
<tspan x="10" y="3290">                                 JSDoc</tspan>
<tspan x="10" y="3306">                                 runs.</tspan>
<tspan x="10" y="3322">    -X, --explain                Dump</tspan>
<tspan x="10" y="3338">                                 all</tspan>
<tspan x="10" y="3354">                                 found</tspan>
<tspan x="10" y="3370">                                 doclet</tspan>
<tspan x="10" y="3386">                                 internals</tspan>
<tspan x="10" y="3402">                                 to</tspan>
<tspan x="10" y="3418">                                 console</tspan>
<tspan x="10" y="3434">                                 and</tspan>
<tspan x="10" y="3450">                                 quit.</tspan>
<tspan x="10" y="3466"></tspan>
<tspan x="10" y="3482">Visit http://usejsdoc.org for more information.</tspan>
<tspan x="10" y="3498">created apidoc file:///home/travis/build/npmdoc/node-npmdoc-jsdoc/tmp/build/apidoc.html</tspan>
<tspan x="10" y="3514"></tspan>
<tspan x="10" y="3530"></tspan>
<tspan x="10" y="3546">browserTest - created electron entry-page /home/travis/build/npmdoc/node-npmdoc-jsdoc/tmp/electr\</tspan>
<tspan x="10" y="3562">on.15b2a8db3f80.a35ceeccd98bc.html</tspan>
<tspan x="10" y="3578"></tspan>
<tspan x="10" y="3594">[node test-case 1 of 6 passed] - testCase_buildLib_default</tspan>
<tspan x="10" y="3610">[node test-case 2 of 6 passed] - testCase_buildReadme_default</tspan>
<tspan x="10" y="3626">[node test-case 3 of 6 passed] - testCase_buildTest_default</tspan>
<tspan x="10" y="3642"></tspan>
<tspan x="10" y="3658">browserTest - created electron entry-page /home/travis/build/npmdoc/node-npmdoc-jsdoc/tmp/electr\</tspan>
<tspan x="10" y="3674">on.15b2a8db4540.5d6aeeb77e3ce.html</tspan>
<tspan x="10" y="3690"></tspan>
<tspan x="10" y="3706">Xlib:  extension "RANDR" missing on display ":99.0".</tspan>
<tspan x="10" y="3722">Xlib:  extension "RANDR" missing on display ":99.0".</tspan>
<tspan x="10" y="3738">&gt; server listening on http-port 54977</tspan>
<tspan x="10" y="3754">merging file:///home/travis/build/npmdoc/node-npmdoc-jsdoc/tmp/build/test-report.json to test-re\</tspan>
<tspan x="10" y="3770">port</tspan>
<tspan x="10" y="3786">Xlib:  extension "RANDR" missing on display ":99.0".</tspan>
<tspan x="10" y="3802">[4799:0401/172622:WARNING:audio_manager.cc(314)] Multiple instances of AudioManager detected</tspan>
<tspan x="10" y="3818">[4799:0401/172622:WARNING:audio_manager.cc(275)] Multiple instances of AudioManager detected</tspan>
<tspan x="10" y="3834">merging file:///home/travis/build/npmdoc/node-npmdoc-jsdoc/tmp/build/test-report.json to test-re\</tspan>
<tspan x="10" y="3850">port</tspan>
<tspan x="10" y="3866">[4837:0401/172622:ERROR:sandbox_linux.cc(343)] InitializeSandbox() called with multiple threads \</tspan>
<tspan x="10" y="3882">in process gpu-process. </tspan>
<tspan x="10" y="3898">Xlib:  extension "RANDR" missing on display ":99.0".</tspan>
<tspan x="10" y="3914">[4801:0401/172622:WARNING:audio_manager.cc(314)] Multiple instances of AudioManager detected</tspan>
<tspan x="10" y="3930">[4801:0401/172622:WARNING:audio_manager.cc(275)] Multiple instances of AudioManager detected</tspan>
<tspan x="10" y="3946">[4862:0401/172623:ERROR:sandbox_linux.cc(343)] InitializeSandbox() called with multiple threads \</tspan>
<tspan x="10" y="3962">in process gpu-process. </tspan>
<tspan x="10" y="3978">[4801:0401/172623:ERROR:browser_gpu_channel_host_factory.cc(131)] Failed to create channel.</tspan>
<tspan x="10" y="3994"></tspan>
<tspan x="10" y="4010">browserTest - opened url /home/travis/build/npmdoc/node-npmdoc-jsdoc/tmp/build/apidoc.html</tspan>
<tspan x="10" y="4026"></tspan>
<tspan x="10" y="4042"></tspan>
<tspan x="10" y="4058">browserTest - opened url http://127.0.0.1:47107?modeTest=1</tspan>
<tspan x="10" y="4074"></tspan>
<tspan x="10" y="4090">[4801:0401/172625:INFO:CONSOLE(245)] "----------|-----------|-----------|-----------|-----------\</tspan>
<tspan x="10" y="4106">|</tspan>
<tspan x="10" y="4122">File      |   % Stmts |% Branches |   % Funcs |   % Lines |</tspan>
<tspan x="10" y="4138">----------|-----------|-----------|-----------|-----------|</tspan>
<tspan x="10" y="4154">----------|-----------|-----------|-----------|-----------|</tspan>
<tspan x="10" y="4170">All files |       100 |       100 |       100 |       100 |</tspan>
<tspan x="10" y="4186">----------|-----------|-----------|-----------|-----------|</tspan>
<tspan x="10" y="4202">", source: file:///home/travis/build/npmdoc/node-npmdoc-jsdoc/tmp/electron.15b2a8db4540.5d6aeeb7\</tspan>
<tspan x="10" y="4218">7e3ce.html (245)</tspan>
<tspan x="10" y="4234">[4801:0401/172625:INFO:CONSOLE(245)] "created coverage file:///tmp/build/coverage.html/index.htm\</tspan>
<tspan x="10" y="4250">l", source: file:///home/travis/build/npmdoc/node-npmdoc-jsdoc/tmp/electron.15b2a8db4540.5d6aeeb\</tspan>
<tspan x="10" y="4266">77e3ce.html (245)</tspan>
<tspan x="10" y="4282">[node test-case 4 of 6 passed] - testCase_buildApp_default</tspan>
<tspan x="10" y="4298"></tspan>
<tspan x="10" y="4314">browserTest - created screen-capture file:///home/travis/build/npmdoc/node-npmdoc-jsdoc/tmp/buil\</tspan>
<tspan x="10" y="4330">d/screen-capture.npmTest.browser._2Fhome_2Ftravis_2Fbuild_2Fnpmdoc_2Fnode-npmdoc-jsdoc_2Ftmp_2Fb\</tspan>
<tspan x="10" y="4346">uild_2Fapidoc.html.png</tspan>
<tspan x="10" y="4362"></tspan>
<tspan x="10" y="4378">browserTest - created screen-capture file:///home/travis/build/npmdoc/node-npmdoc-jsdoc/tmp/buil\</tspan>
<tspan x="10" y="4394">d/screen-capture.npmTest.browser._2Fhome_2Ftravis_2Fbuild_2Fnpmdoc_2Fnode-npmdoc-jsdoc_2Ftmp_2Fb\</tspan>
<tspan x="10" y="4410">uild_2Fapidoc.html.png.html</tspan>
<tspan x="10" y="4426"></tspan>
<tspan x="10" y="4442">browserTest - exit-code 0 - /home/travis/build/npmdoc/node-npmdoc-jsdoc/tmp/build/apidoc.html</tspan>
<tspan x="10" y="4458"></tspan>
<tspan x="10" y="4474">[node test-case 5 of 6 passed] - testCase_buildApidoc_default</tspan>
<tspan x="10" y="4490"></tspan>
<tspan x="10" y="4506">browserTest - created screen-capture file:///home/travis/build/npmdoc/node-npmdoc-jsdoc/tmp/buil\</tspan>
<tspan x="10" y="4522">d/screen-capture.npmTest.browser..png</tspan>
<tspan x="10" y="4538"></tspan>
<tspan x="10" y="4554">browserTest - created screen-capture file:///home/travis/build/npmdoc/node-npmdoc-jsdoc/tmp/buil\</tspan>
<tspan x="10" y="4570">d/screen-capture.npmTest.browser..png.html</tspan>
<tspan x="10" y="4586"></tspan>
<tspan x="10" y="4602">browserTest - exit-code 0 - http://127.0.0.1:47107?modeTest=1</tspan>
<tspan x="10" y="4618"></tspan>
<tspan x="10" y="4634"></tspan>
<tspan x="10" y="4650">browserTest - merged coverage from /home/travis/build/npmdoc/node-npmdoc-jsdoc/tmp/coverage.npmT\</tspan>
<tspan x="10" y="4666">est.browser.%2F.json</tspan>
<tspan x="10" y="4682"></tspan>
<tspan x="10" y="4698"></tspan>
<tspan x="10" y="4714">browserTest - merging test-report from /home/travis/build/npmdoc/node-npmdoc-jsdoc/tmp/test-repo\</tspan>
<tspan x="10" y="4730">rt.npmTest.browser.%2F.json</tspan>
<tspan x="10" y="4746"></tspan>
<tspan x="10" y="4762">[node test-case 6 of 6 passed] - testCase_webpage_default</tspan>
<tspan x="10" y="4778">--------------------------|-----------|-----------|-----------|-----------|</tspan>
<tspan x="10" y="4794">File                      |   % Stmts |% Branches |   % Funcs |   % Lines |</tspan>
<tspan x="10" y="4810">--------------------------|-----------|-----------|-----------|-----------|</tspan>
<tspan x="10" y="4826">   node-npmdoc-jsdoc/     |       100 |       100 |       100 |       100 |</tspan>
<tspan x="10" y="4842">      example.js          |       100 |       100 |       100 |       100 |</tspan>
<tspan x="10" y="4858">      lib.npmdoc_jsdoc.js |       100 |       100 |       100 |       100 |</tspan>
<tspan x="10" y="4874">      test.js             |       100 |       100 |       100 |       100 |</tspan>
<tspan x="10" y="4890">--------------------------|-----------|-----------|-----------|-----------|</tspan>
<tspan x="10" y="4906">All files                 |       100 |       100 |       100 |       100 |</tspan>
<tspan x="10" y="4922">--------------------------|-----------|-----------|-----------|-----------|</tspan>
<tspan x="10" y="4938"></tspan>
<tspan x="10" y="4954">created coverage file:///home/travis/build/npmdoc/node-npmdoc-jsdoc/tmp/build/coverage.html/inde\</tspan>
<tspan x="10" y="4970">x.html</tspan>
<tspan x="10" y="4986">merging file:///home/travis/build/npmdoc/node-npmdoc-jsdoc/tmp/build/test-report.json to test-re\</tspan>
<tspan x="10" y="5002">port</tspan>
<tspan x="10" y="5018"></tspan>
<tspan x="10" y="5034">-------------------------------------------------------</tspan>
<tspan x="10" y="5050">| test-report - buildNpmdoc - node - linux v6.10.1 - 2017-04-01T17:26:03.772Z</tspan>
<tspan x="10" y="5066">|   27284 ms            0 failed        6 passed      |</tspan>
<tspan x="10" y="5082">-------------------------------------------------------</tspan>
<tspan x="10" y="5098"></tspan>
<tspan x="10" y="5114">created test-report file:///home/travis/build/npmdoc/node-npmdoc-jsdoc/tmp/build/test-report.htm\</tspan>
<tspan x="10" y="5130">l</tspan>
<tspan x="10" y="5146"></tspan>
<tspan x="10" y="5162"></tspan>
<tspan x="10" y="5178">npmTest - 0 failed tests</tspan>
<tspan x="10" y="5194"></tspan>
<tspan x="10" y="5210"></tspan>
<tspan x="10" y="5226">[MODE_BUILD=npmTest] - 2017-04-01T17:26:35Z - EXIT_CODE - 0</tspan>
</text>
</svg>
